<?xml version="1.0" standalone="no"?>
<!DOCTYPE svg PUBLIC "-//W3C//DTD SVG 20010904//EN"
 "http://www.w3.org/TR/2001/REC-SVG-20010904/DTD/svg10.dtd">
<svg version="1.0" xmlns="http://www.w3.org/2000/svg"
 width="256.000000pt" height="256.000000pt" viewBox="0 0 256.000000 256.000000"
 preserveAspectRatio="xMidYMid meet">

<g transform="translate(0.000000,256.000000) scale(0.100000,-0.100000)"
fill="#ff0303" stroke="none">
<path d="M1205 2490 c-44 -14 -102 -66 -127 -113 -30 -57 -30 -147 0 -204 91
-174 346 -157 408 29 46 141 -47 284 -192 294 -33 2 -72 -1 -89 -6z"/>
<path d="M525 2201 c-43 -11 -66 -25 -102 -63 -61 -63 -79 -160 -44 -241 84
-196 361 -178 416 28 16 58 16 66 1 118 -28 97 -93 153 -187 161 -30 3 -67 2
-84 -3z"/>
<path d="M229 1497 c-97 -36 -152 -113 -153 -211 0 -92 47 -170 129 -214 69
-36 196 -11 251 50 80 87 80 229 0 316 -51 57 -158 84 -227 59z"/>
<path d="M2187 1496 c-88 -32 -157 -127 -157 -216 0 -46 31 -119 65 -154 50
-52 91 -69 162 -70 51 0 70 5 110 30 167 103 141 344 -44 410 -48 17 -88 17
-136 0z"/>
<path d="M515 793 c-45 -12 -104 -64 -129 -115 -46 -92 -27 -197 48 -266 123
-113 315 -58 362 104 15 53 15 61 -1 119 -19 70 -64 123 -127 150 -36 14 -111
18 -153 8z"/>
<path d="M1880 785 c-188 -85 -167 -372 31 -425 188 -51 343 146 251 321 -41
78 -94 113 -180 116 -45 2 -79 -2 -102 -12z"/>
<path d="M1196 495 c-118 -42 -178 -199 -118 -312 84 -161 311 -163 392 -4 95
186 -78 386 -274 316z"/>
</g>
</svg>
